<svg width="128" height="110" viewBox="0 0 128 110" fill="none" xmlns="http://www.w3.org/2000/svg">
<path d="M63.702 77.882C64.2471 82.3456 65.7212 87.7423 62.3215 90.0339C61.5932 90.4585 60.1776 90.1183 59.3951 90.0037C58.0909 89.8126 57.2513 90.0881 56.9303 91.3695C56.479 92.6318 57.2967 93.4158 58.7122 93.756C59.4757 94.0007 60.7799 94.1917 61.0759 94.8993C61.4833 95.756 61.07 96.7581 60.8253 97.5193C60.2054 99.0226 60.4795 100.79 62.1178 101.428C63.7561 102.067 64.71 101.011 65.2376 99.2284C65.5204 98.2071 66.1022 96.9639 66.9799 96.4283C68.0072 95.7818 69.3656 96.5121 70.5203 96.8141C71.9359 97.1543 73.2049 96.676 73.4525 94.9854C73.7002 93.2948 72.6598 92.2125 71.3556 92.0214C70.1818 91.8495 68.7282 91.7694 68.0599 90.8745C65.4062 87.1647 68.1435 82.1193 68.5494 77.5294C66.5829 74.5846 64.3028 76.5088 63.702 77.882Z" fill="url(#paint0_linear)"/>
<path d="M29.497 60.3846C25.668 62.879 22.447 67.5878 17.9937 67.0683C16.8199 66.8964 16.2089 65.6113 15.4102 64.6973C14.6307 63.6532 13.2151 63.313 11.7395 64.2924C10.3942 65.2909 10.595 66.6487 11.505 67.7119C12.3036 68.6259 13.643 69.4863 13.4715 70.6567C13.4495 71.7162 12.4956 72.772 11.8596 73.4759C10.6067 74.7536 10.1553 76.0158 11.587 77.1554C13.0187 78.295 14.5676 77.7249 15.6901 76.4281C16.3261 75.7242 16.9811 74.8903 17.9131 74.894C18.7146 74.8786 19.4942 75.9227 20.0701 76.5384C21.1105 77.6207 22.1348 77.9035 23.0698 76.9778C24.0047 76.052 23.8772 75.1035 23.0786 74.1895C22.5027 73.5737 21.6117 72.3805 21.726 71.6002C22.0748 67.4005 27.8382 66.2522 31.9632 64.4653C34.7489 61.8181 31.4372 59.8718 29.497 60.3846Z" fill="url(#paint1_linear)"/>
<path d="M36.1487 37.7136C32.3767 39.8179 30.1098 43.471 28.7909 47.9271C27.472 52.3833 27.3841 56.6212 29.3667 60.3655C29.8855 61.3714 31.1838 63.4213 31.833 64.4463C35.3396 69.6093 42.2621 73.2802 51.0895 75.7688C55.559 77.0877 59.8247 77.9783 63.7021 77.8821C64.8949 77.924 67.1883 77.7286 68.4001 77.6404C76.9023 76.8933 82.566 71.8781 84.8828 64.2471C85.1657 63.2259 85.4294 62.3346 85.5818 61.2942C85.68 59.7146 85.5775 56.7771 85.4148 55.1592C84.4902 46.9206 75.6012 40.3049 62.5842 36.4054C53.9062 33.8058 46.1353 33.1988 40.3309 35.5367C39.3227 36.0532 37.1759 37.0671 36.1487 37.7136Z" fill="url(#paint2_radial)"/>
<path opacity="0.19" d="M44.4396 56.5957C40.2471 56.1144 38.0388 53.0013 38.6484 48.8398C39.1276 44.6591 42.2474 42.4593 46.4209 43.0707C50.6133 43.552 52.8216 46.6651 52.212 50.8267C51.5833 55.1183 48.594 57.3371 44.4396 56.5957Z" fill="black"/>
<path opacity="0.19" d="M69.9168 63.6489C66.7867 63.1903 65.1162 60.953 65.5734 57.8319C66.0306 54.7107 68.2727 53.0466 71.4028 53.5051C74.5328 53.9636 76.2033 56.2009 75.7461 59.3221C75.2889 62.4432 73.0469 64.1074 69.9168 63.6489Z" fill="black"/>
<path d="M45.3556 55.8001C41.1632 55.3188 38.9548 52.2056 39.5644 48.0441C40.0436 43.8635 43.1635 41.6637 47.3369 42.2751C51.5293 42.7564 53.7377 45.8695 53.128 50.031C52.5184 54.1926 49.529 56.4114 45.3556 55.8001Z" fill="url(#paint3_radial)"/>
<path d="M70.8326 62.8532C67.7025 62.3946 66.032 60.1573 66.4892 57.0362C66.9464 53.915 69.1885 52.2509 72.3185 52.7094C75.4486 53.1679 77.1191 55.4052 76.6619 58.5264C76.2047 61.6475 73.9626 63.3117 70.8326 62.8532Z" fill="url(#paint4_radial)"/>
<path d="M51.2015 49.3784C52.0847 49.0402 52.3768 47.6673 51.8541 46.3118C51.3313 44.9563 50.1916 44.1316 49.3084 44.4698C48.4252 44.8079 48.133 46.1809 48.6558 47.5363C49.1785 48.8918 50.3183 49.7165 51.2015 49.3784Z" fill="white"/>
<path d="M75.5113 57.9561C76.1227 57.7219 76.3215 56.7628 75.9554 55.8141C75.5892 54.8653 74.7968 54.2861 74.1854 54.5203C73.574 54.7546 73.3752 55.7136 73.7413 56.6623C74.1075 57.6111 74.8999 58.1903 75.5113 57.9561Z" fill="white"/>
<path d="M76.5374 44.8257C74.2792 45.6904 81.1357 52.5398 82.3095 52.7117C83.7441 52.9219 82.9132 50.409 81.7072 48.6383C80.1481 46.5502 77.8064 44.3474 76.5374 44.8257Z" fill="#EC174F"/>
<path opacity="0.19" d="M38.6426 62.5213C39.5482 59.0673 31.6043 54.1841 30.6416 58.0283C29.6407 62.1325 37.2094 67.7578 38.6426 62.5213Z" fill="black"/>
<path opacity="0.19" d="M33.1342 53.744C33.776 51.1813 30.5214 48.8448 29.7843 52.0578C29.1234 54.7506 32.378 57.0871 33.1342 53.744Z" fill="black"/>
<path opacity="0.19" d="M36.5793 54.7801C37.164 52.6075 34.3139 52.0571 33.7673 53.9696C33.332 56.0313 36.125 56.9718 36.5793 54.7801Z" fill="black"/>
<defs>
<linearGradient id="paint0_linear" x1="57.3426" y1="87.8414" x2="74.123" y2="90.2995" gradientUnits="userSpaceOnUse">
<stop stop-color="#EC174F"/>
<stop offset="1" stop-color="#981028"/>
</linearGradient>
<linearGradient id="paint1_linear" x1="10.6052" y1="67.4457" x2="31.8482" y2="70.5576" gradientUnits="userSpaceOnUse">
<stop stop-color="#EC174F"/>
<stop offset="1" stop-color="#981028"/>
</linearGradient>
<radialGradient id="paint2_radial" cx="0" cy="0" r="1" gradientUnits="userSpaceOnUse" gradientTransform="translate(69.8116 49.0825) rotate(8.33392) scale(45.0748 44.9466)">
<stop stop-color="#EC174F"/>
<stop offset="1" stop-color="#981028"/>
</radialGradient>
<radialGradient id="paint3_radial" cx="0" cy="0" r="1" gradientUnits="userSpaceOnUse" gradientTransform="translate(46.3258 49.071) rotate(8.33392) scale(6.79499 6.77567)">
<stop stop-color="#003A52"/>
<stop offset="0.1937" stop-color="#003449"/>
<stop offset="0.504" stop-color="#002332"/>
<stop offset="0.8899" stop-color="#00090C"/>
<stop offset="1"/>
</radialGradient>
<radialGradient id="paint4_radial" cx="0" cy="0" r="1" gradientUnits="userSpaceOnUse" gradientTransform="translate(71.5334 57.7225) rotate(8.33392) scale(5.13773 5.12312)">
<stop stop-color="#003A52"/>
<stop offset="0.1937" stop-color="#003449"/>
<stop offset="0.504" stop-color="#002332"/>
<stop offset="0.8899" stop-color="#00090C"/>
<stop offset="1"/>
</radialGradient>
</defs>
</svg>
