<svg width="264" height="66" viewBox="0 0 264 66" fill="none" xmlns="http://www.w3.org/2000/svg">
<path fill-rule="evenodd" clip-rule="evenodd" d="M181.798 0L207.982 14.2906L183.941 30.8042L181.798 0ZM160.455 27.3903L161.01 44.6184H162.756L167.992 34.6944H180.449L171.087 48.4292L183.465 63.7519H169.579L162.835 52.3989H161.01L161.565 63.7519H151.568L148.077 21.9123L160.455 27.3903ZM196.953 29.4545L195.842 63.7519H186.083L184.417 37.7113L196.953 29.4545ZM213.933 64.3077C206.236 64.3077 200.524 57.9563 200.524 48.985C200.524 39.9343 206.236 33.5035 213.933 33.5035C217.583 33.5035 220.439 35.012 222.423 37.5525V21.9123L234.166 28.2636L232.341 63.5932H222.423V60.3381C220.439 62.7992 217.583 64.3077 213.933 64.3077ZM217.979 52.9546C221.55 52.9546 223.93 50.4141 223.93 46.762C223.93 42.9512 221.55 40.4106 217.979 40.4106C214.409 40.4106 211.949 42.9512 211.949 46.762C211.949 50.4141 214.329 52.9546 217.979 52.9546ZM250.749 64.3077C243.766 64.3077 238.45 61.3702 236.546 57.0036L244.401 53.5104C245.194 55.0188 247.416 56.4479 250.907 56.4479C253.684 56.4479 254.557 55.8127 254.557 54.86C254.557 53.6691 252.415 53.1134 249.558 52.5576C244.48 51.4462 237.339 49.7789 237.339 42.6336C237.339 37.0762 242.655 32.789 250.193 32.789C257.017 32.789 262.095 36.1235 263.92 40.0931L256.065 43.5863C255.43 42.5542 253.526 41.2046 250.034 41.2046C247.972 41.2046 246.861 41.6809 246.861 42.5542C246.861 43.5863 248.924 44.0627 251.542 44.6184C256.62 45.8093 263.999 47.4765 263.999 54.3837C264.078 60.2587 258.683 64.3077 250.749 64.3077Z" fill="white"/>
<path d="M15.784 33.8808L0 24.7457V42.9581L15.784 33.8808Z" fill="white"/>
<path d="M15.784 56.6029L0 47.4678V65.6801L15.784 56.6029Z" fill="white"/>
<path d="M0.925171 45.213L16.7092 36.1357V54.348L0.925171 45.213Z" fill="white"/>
<path d="M114.998 33.8808L99.214 24.7457V42.9581L114.998 33.8808Z" fill="white"/>
<path d="M114.998 56.6029L99.214 47.4678V65.6801L114.998 56.6029Z" fill="white"/>
<path d="M100.139 45.213L115.923 36.1357V54.348L100.139 45.213Z" fill="white"/>
<path d="M68.4554 62.7893L77.5327 47.0052H59.3203L68.4554 62.7893Z" fill="white"/>
<path d="M45.7332 62.7893L54.8105 47.0052H36.5981L45.7332 62.7893Z" fill="white"/>
<path d="M57.0654 47.9303L66.2005 63.7143H47.9882L57.0654 47.9303Z" fill="white"/>
<path d="M79.6718 43.7097L88.8069 27.9257H70.5367L79.6718 43.7097Z" fill="white"/>
<path d="M68.3397 28.8507L77.4169 44.5769H59.2046L68.3397 28.8507Z" fill="white"/>
<path d="M34.4589 43.7097L25.3816 27.9257H43.594L34.4589 43.7097Z" fill="white"/>
<path d="M45.8488 28.8507L36.7137 44.5769H54.9261L45.8488 28.8507Z" fill="white"/>
<path d="M15.7262 9.07727L0 0V18.2124L15.7262 9.13509V9.07727Z" fill="white"/>
<path d="M114.94 9.07727L99.214 0V18.2124L114.94 9.13509V9.07727Z" fill="white"/>
</svg>
